STARTFONT 2.1
COMMENT Copyright (C) 1994 Electrotechnical Laboratory, Japan.
COMMENT You can use, copy, modify, distribute this file for free.
COMMENT 94.09.14 Created by Takahashi N. <ntakahas@etl.go.jp>
FONT -Etl-Fixed-Medium-R-Normal--32-320-72-72-C-160-ISO8859-1
SIZE 32 72 72
FONTBOUNDINGBOX 16 32 0 -3
STARTPROPERTIES 20
FONTNAME_REGISTRY ""
FOUNDRY "ETL"
FAMILY_NAME "Fixed"
WEIGHT_NAME "Medium"
SLANT "R"
SETWIDTH_NAME "Normal"
ADD_STYLE_NAME ""
PIXEL_SIZE 32
POINT_SIZE 320
RESOLUTION_X 72
RESOLUTION_Y 72
SPACING "C"
AVERAGE_WIDTH 160
CHARSET_REGISTRY "ISO8859"
CHARSET_ENCODING "1"
DEFAULT_CHAR 32
FONT_DESCENT 3
FONT_ASCENT 30
_MULE_BASELINE_OFFSET -3
COPYRIGHT "Copyright (C) 1994 Electrotechnical Laboratory, Japan."
ENDPROPERTIES
CHARS 191
STARTCHAR SPACE
ENCODING 32
SWIDTH 667 0
DWIDTH 16 0
BBX 16 32 0 -3
BITMAP
0000
0000
0000
0000
0000
0000
0000
0000
0000
0000
0000
0000
0000
0000
0000
0000
0000
0000
0000
0000
0000
0000
0000
0000
0000
0000
0000
0000
0000
0000
0000
0000
ENDCHAR
STARTCHAR EXCLAMATION MARK
ENCODING 33
SWIDTH 667 0
DWIDTH 16 0
BBX 16 32 0 -3
BITMAP
0000
0000
0000
0000
0000
0000
0000
0180
03c0
03c0
03c0
03c0
03c0
03c0
03c0
03c0
0180
0180
0180
0180
0000
0000
0180
03c0
03c0
0180
0000
0000
0000
0000
0000
0000
ENDCHAR
STARTCHAR QUOTATION MARK
ENCODING 34
SWIDTH 667 0
DWIDTH 16 0
BBX 16 32 0 -3
BITMAP
0000
0000
0000
0000
0000
0000
0000
0e70
0e70
0e70
0e70
0e70
0e70
0e70
0000
0000
0000
0000
0000
0000
0000
0000
0000
0000
0000
0000
0000
0000
0000
0000
0000
0000
ENDCHAR
STARTCHAR NUMBER SIGN
ENCODING 35
SWIDTH 667 0
DWIDTH 16 0
BBX 16 32 0 -3
BITMAP
0000
0000
0000
0000
0000
0000
0000
0738
0738
0738
0738
0738
3ffe
3ffe
3ffe
0e70
0e70
0e70
7ffc
7ffc
7ffc
1ce0
1ce0
1ce0
1ce0
1ce0
0000
0000
0000
0000
0000
0000
ENDCHAR
STARTCHAR DOLLAR SIGN
ENCODING 36
SWIDTH 667 0
DWIDTH 16 0
BBX 16 32 0 -3
BITMAP
0000
0000
0000
0000
0000
0000
0000
01c0
01c0
07f0
0ffc
1ffe
3ddc
39c8
3dc0
3ff0
1ffc
07fe
01de
09ce
1dde
3ffc
1ff8
07f0
01c0
01c0
0000
0000
0000
0000
0000
0000
ENDCHAR
STARTCHAR PERCENT SIGN
ENCODING 37
SWIDTH 667 0
DWIDTH 16 0
BBX 16 32 0 -3
BITMAP
0000
0000
0000
0000
0000
0000
0000
1c00
3e08
771c
633c
6338
7770
3ef0
1ce0
01c0
03c0
0380
0738
0f7c
0eee
1cc6
3cc6
38ee
107c
0038
0000
0000
0000
0000
0000
0000
ENDCHAR
STARTCHAR AMPERSAND
ENCODING 38
SWIDTH 667 0
DWIDTH 16 0
BBX 16 32 0 -3
BITMAP
0000
0000
0000
0000
0000
0000
0000
01c0
07f0
0ff8
0e3c
1c1c
1c1c
1c38
0ef8
07f0
07c0
0f84
3dce
78fe
707c
7038
787c
3ffe
1fce
0f8c
0000
0000
0000
0000
0000
0000
ENDCHAR
STARTCHAR c27
ENCODING 39
SWIDTH 1000 0
DWIDTH 16 0
BBX 16 32 0 -3
BITMAP
0000
0000
0000
0000
0000
0000
0000
0000
0380
07c0
07c0
07c0
03c0
01c0
0380
0700
0000
0000
0000
0000
0000
0000
0000
0000
0000
0000
0000
0000
0000
0000
0000
0000
ENDCHAR
STARTCHAR LEFT PARENTHESIS
ENCODING 40
SWIDTH 667 0
DWIDTH 16 0
BBX 16 32 0 -3
BITMAP
0000
0000
0000
0000
0000
0000
0000
0030
0070
00f0
01e0
03c0
0380
0780
0700
0700
0700
0700
0700
0780
0380
03c0
01e0
00f0
0070
0030
0000
0000
0000
0000
0000
0000
ENDCHAR
STARTCHAR c29
ENCODING 41
SWIDTH 1000 0
DWIDTH 16 0
BBX 16 32 0 -3
BITMAP
0000
0000
0000
0000
0000
0000
0000
0c00
0e00
0f00
0780
03c0
01c0
01e0
00e0
00e0
00e0
00e0
00e0
01e0
01c0
03c0
0780
0f00
0e00
0c00
0000
0000
0000
0000
0000
0000
ENDCHAR
STARTCHAR ASTERISK
ENCODING 42
SWIDTH 667 0
DWIDTH 16 0
BBX 16 32 0 -3
BITMAP
0000
0000
0000
0000
0000
0000
0000
0000
0000
01c0
01c0
19cc
3dde
3ffe
1ffc
07f0
03e0
07f0
1ffc
3ffe
3dde
19cc
01c0
01c0
0000
0000
0000
0000
0000
0000
0000
0000
ENDCHAR
STARTCHAR PLUS SIGN
ENCODING 43
SWIDTH 667 0
DWIDTH 16 0
BBX 16 32 0 -3
BITMAP
0000
0000
0000
0000
0000
0000
0000
0000
0000
01c0
01c0
01c0
01c0
01c0
01c0
3ffe
3ffe
3ffe
01c0
01c0
01c0
01c0
01c0
01c0
0000
0000
0000
0000
0000
0000
0000
0000
ENDCHAR
STARTCHAR c2c
ENCODING 44
SWIDTH 1000 0
DWIDTH 16 0
BBX 16 32 0 -3
BITMAP
0000
0000
0000
0000
0000
0000
0000
0000
0000
0000
0000
0000
0000
0000
0000
0000
0000
0000
0000
0000
0000
0380
07c0
07c0
07c0
03c0
01c0
0380
0700
0000
0000
0000
ENDCHAR
STARTCHAR HYPHEN, MINUS SIGN
ENCODING 45
SWIDTH 667 0
DWIDTH 16 0
BBX 16 32 0 -3
BITMAP
0000
0000
0000
0000
0000
0000
0000
0000
0000
0000
0000
0000
0000
0000
0000
3ffe
3ffe
3ffe
0000
0000
0000
0000
0000
0000
0000
0000
0000
0000
0000
0000
0000
0000
ENDCHAR
STARTCHAR c2e
ENCODING 46
SWIDTH 500 0
DWIDTH 16 0
BBX 16 32 0 -3
BITMAP
0000
0000
0000
0000
0000
0000
0000
0000
0000
0000
0000
0000
0000
0000
0000
0000
0000
0000
0000
0000
0000
0000
0380
07c0
07c0
07c0
0380
0000
0000
0000
0000
0000
ENDCHAR
STARTCHAR c2f
ENCODING 47
SWIDTH 500 0
DWIDTH 16 0
BBX 16 32 0 -3
BITMAP
0000
0000
0000
0000
0000
0000
0004
000e
000e
001c
003c
0038
0070
00f0
00e0
01c0
03c0
0380
0700
0f00
0e00
1c00
3c00
3800
7000
7000
2000
0000
0000
0000
0000
0000
ENDCHAR
STARTCHAR DIGIT ZERO
ENCODING 48
SWIDTH 667 0
DWIDTH 16 0
BBX 16 32 0 -3
BITMAP
0000
0000
0000
0000
0000
0000
0000
01c0
07f0
0ff8
0e38
1c1c
1c1c
1c3c
1c7c
1cfc
1ddc
1f9c
1f1c
1e1c
1c1c
1c1c
0e38
0ff8
07f0
01c0
0000
0000
0000
0000
0000
0000
ENDCHAR
STARTCHAR DIGIT ONE
ENCODING 49
SWIDTH 667 0
DWIDTH 16 0
BBX 16 32 0 -3
BITMAP
0000
0000
0000
0000
0000
0000
0000
01c0
03c0
07c0
0fc0
1fc0
1dc0
01c0
01c0
01c0
01c0
01c0
01c0
01c0
01c0
01c0
01c0
1ffc
1ffc
1ffc
0000
0000
0000
0000
0000
0000
ENDCHAR
STARTCHAR DIGIT TWO
ENCODING 50
SWIDTH 667 0
DWIDTH 16 0
BBX 16 32 0 -3
BITMAP
0000
0000
0000
0000
0000
0000
0000
03e0
0ff8
1ffc
3c1c
380e
100e
000e
001e
003c
0078
00f0
01e0
03c0
0780
0f00
1e00
3ffe
3ffe
3ffe
0000
0000
0000
0000
0000
0000
ENDCHAR
STARTCHAR DIGIT THREE
ENCODING 51
SWIDTH 667 0
DWIDTH 16 0
BBX 16 32 0 -3
BITMAP
0000
0000
0000
0000
0000
0000
0000
03e0
0ff8
1ffc
3c1c
380e
100e
000e
001c
03f8
03f8
03fc
001e
000e
100e
380e
3c1c
1ffc
0ff8
07e0
0000
0000
0000
0000
0000
0000
ENDCHAR
STARTCHAR DIGIT FOUR
ENCODING 52
SWIDTH 667 0
DWIDTH 16 0
BBX 16 32 0 -3
BITMAP
0000
0000
0000
0000
0000
0000
0000
00e0
00e0
01e0
01c0
0380
0780
0770
0f70
0e70
1c70
3c70
3870
3ffe
3ffe
3ffe
0070
0070
0070
0070
0000
0000
0000
0000
0000
0000
ENDCHAR
STARTCHAR DIGIT FIVE
ENCODING 53
SWIDTH 667 0
DWIDTH 16 0
BBX 16 32 0 -3
BITMAP
0000
0000
0000
0000
0000
0000
0000
1ffc
1ffc
1ffc
1c00
1c00
1c00
1c00
1fe0
1ff8
1ffc
003e
000e
000e
100e
380e
3c1c
1ffc
0ff8
03e0
0000
0000
0000
0000
0000
0000
ENDCHAR
STARTCHAR DIGIT SIX
ENCODING 54
SWIDTH 667 0
DWIDTH 16 0
BBX 16 32 0 -3
BITMAP
0000
0000
0000
0000
0000
0000
0000
03f0
0ff8
1ffc
1e1c
3c08
3800
3800
3bf0
3ff8
3ffc
3c1c
380e
380e
380e
380e
1c1c
1ffc
0ff8
03e0
0000
0000
0000
0000
0000
0000
ENDCHAR
STARTCHAR DIGIT SEVEN
ENCODING 55
SWIDTH 667 0
DWIDTH 16 0
BBX 16 32 0 -3
BITMAP
0000
0000
0000
0000
0000
0000
0000
3ffe
3ffe
3ffe
001c
001c
0038
0038
0070
0070
00e0
00e0
01c0
01c0
0380
0380
0700
0700
0e00
0e00
0000
0000
0000
0000
0000
0000
ENDCHAR
STARTCHAR DIGIT EIGHT
ENCODING 56
SWIDTH 667 0
DWIDTH 16 0
BBX 16 32 0 -3
BITMAP
0000
0000
0000
0000
0000
0000
0000
01c0
07f0
0ff8
0e38
1c1c
1c1c
1c1c
0e38
07f0
0ff8
1ffc
1c1c
380e
380e
380e
1c1c
1ffc
0ff8
03e0
0000
0000
0000
0000
0000
0000
ENDCHAR
STARTCHAR DIGIT NINE
ENCODING 57
SWIDTH 667 0
DWIDTH 16 0
BBX 16 32 0 -3
BITMAP
0000
0000
0000
0000
0000
0000
0000
03e0
0ff8
1ffc
1c1c
380e
380e
380e
380e
1c1e
1ffe
0ffe
07ee
000e
000e
081e
1c3c
1ffc
0ff8
07e0
0000
0000
0000
0000
0000
0000
ENDCHAR
STARTCHAR COLON
ENCODING 58
SWIDTH 667 0
DWIDTH 16 0
BBX 16 32 0 -3
BITMAP
0000
0000
0000
0000
0000
0000
0000
0000
0000
0000
0380
07c0
07c0
07c0
0380
0000
0000
0000
0000
0380
07c0
07c0
07c0
0380
0000
0000
0000
0000
0000
0000
0000
0000
ENDCHAR
STARTCHAR SEMICOLON
ENCODING 59
SWIDTH 667 0
DWIDTH 16 0
BBX 16 32 0 -3
BITMAP
0000
0000
0000
0000
0000
0000
0000
0000
0000
0000
0380
07c0
07c0
07c0
0380
0000
0000
0000
0000
0380
07c0
07c0
07c0
03c0
01c0
0380
0700
0000
0000
0000
0000
0000
ENDCHAR
STARTCHAR LESS-THAN SIGN
ENCODING 60
SWIDTH 667 0
DWIDTH 16 0
BBX 16 32 0 -3
BITMAP
0000
0000
0000
0000
0000
0000
0000
0000
0000
0000
000e
003c
0070
01e0
03c0
0f80
3e00
3e00
0f80
03c0
01e0
0070
003c
000e
0000
0000
0000
0000
0000
0000
0000
0000
ENDCHAR
STARTCHAR EQUALS SIGN
ENCODING 61
SWIDTH 667 0
DWIDTH 16 0
BBX 16 32 0 -3
BITMAP
0000
0000
0000
0000
0000
0000
0000
0000
0000
0000
0000
0000
0000
3ffe
3ffe
3ffe
0000
0000
0000
3ffe
3ffe
3ffe
0000
0000
0000
0000
0000
0000
0000
0000
0000
0000
ENDCHAR
STARTCHAR c3e
ENCODING 62
SWIDTH 500 0
DWIDTH 16 0
BBX 16 32 0 -3
BITMAP
0000
0000
0000
0000
0000
0000
0000
0000
0000
0000
3800
1e00
0700
03c0
01e0
00f8
003e
003e
00f8
01e0
03c0
0700
1e00
3800
0000
0000
0000
0000
0000
0000
0000
0000
ENDCHAR
STARTCHAR QUESTION MARK
ENCODING 63
SWIDTH 667 0
DWIDTH 16 0
BBX 16 32 0 -3
BITMAP
0000
0000
0000
0000
0000
0000
01e0
07f8
0ffc
0e1e
1c0e
1c0e
000e
001e
007c
00f8
01e0
03c0
0380
0380
0000
0000
0180
03c0
03c0
0180
0000
0000
0000
0000
0000
0000
ENDCHAR
STARTCHAR COMMERCIAL AT
ENCODING 64
SWIDTH 667 0
DWIDTH 16 0
BBX 16 32 0 -3
BITMAP
0000
0000
0000
0000
0000
0000
0000
03f0
0ff8
1ffc
1e1e
3c0e
38fe
39fe
3bfe
3b8e
3b8e
3b8e
3b8e
3bfe
39fc
3cf8
1e00
1ffe
0ffe
03fe
0000
0000
0000
0000
0000
0000
ENDCHAR
STARTCHAR CAPITAL LETTER A
ENCODING 65
SWIDTH 667 0
DWIDTH 16 0
BBX 16 32 0 -3
BITMAP
0000
0000
0000
0000
0000
0000
0000
03e0
07f0
0ff8
1e3c
1c1c
3c1e
380e
380e
380e
3ffe
3ffe
3ffe
380e
380e
380e
380e
380e
380e
380e
0000
0000
0000
0000
0000
0000
ENDCHAR
STARTCHAR CAPITAL LETTER B
ENCODING 66
SWIDTH 667 0
DWIDTH 16 0
BBX 16 32 0 -3
BITMAP
0000
0000
0000
0000
0000
0000
0000
3fc0
3ff0
3ff8
3878
381c
381c
381c
3838
3ff8
3ff0
3ffc
381e
380e
380e
380e
381e
3ffc
3ffc
3ff0
0000
0000
0000
0000
0000
0000
ENDCHAR
STARTCHAR CAPITAL LETTER C
ENCODING 67
SWIDTH 667 0
DWIDTH 16 0
BBX 16 32 0 -3
BITMAP
0000
0000
0000
0000
0000
0000
0000
03f0
0ff8
1ffc
1e1e
3c0e
3804
3800
3800
3800
3800
3800
3800
3800
3804
3c0e
1e1e
1ffc
0ff8
03f0
0000
0000
0000
0000
0000
0000
ENDCHAR
STARTCHAR CAPITAL LETTER D
ENCODING 68
SWIDTH 667 0
DWIDTH 16 0
BBX 16 32 0 -3
BITMAP
0000
0000
0000
0000
0000
0000
0000
3fe0
3ff8
3ffc
383c
381e
380e
380e
380e
380e
380e
380e
380e
380e
380e
381e
383c
3ffc
3ff8
3fe0
0000
0000
0000
0000
0000
0000
ENDCHAR
STARTCHAR CAPITAL LETTER E
ENCODING 69
SWIDTH 667 0
DWIDTH 16 0
BBX 16 32 0 -3
BITMAP
0000
0000
0000
0000
0000
0000
0000
3ffe
3ffe
3ffe
3800
3800
3800
3800
3800
3ff0
3ff0
3ff0
3800
3800
3800
3800
3800
3ffe
3ffe
3ffe
0000
0000
0000
0000
0000
0000
ENDCHAR
STARTCHAR CAPITAL LETTER F
ENCODING 70
SWIDTH 667 0
DWIDTH 16 0
BBX 16 32 0 -3
BITMAP
0000
0000
0000
0000
0000
0000
0000
3ffe
3ffe
3ffe
3800
3800
3800
3800
3800
3ff0
3ff0
3ff0
3800
3800
3800
3800
3800
3800
3800
3800
0000
0000
0000
0000
0000
0000
ENDCHAR
STARTCHAR CAPITAL LETTER G
ENCODING 71
SWIDTH 667 0
DWIDTH 16 0
BBX 16 32 0 -3
BITMAP
0000
0000
0000
0000
0000
0000
0000
03f0
0ff8
1ffc
1e1e
3c0e
3804
3800
3800
3800
387e
387e
387e
380e
380e
3c0e
1e1c
1ffc
0ff8
03e0
0000
0000
0000
0000
0000
0000
ENDCHAR
STARTCHAR CAPITAL LETTER H
ENCODING 72
SWIDTH 667 0
DWIDTH 16 0
BBX 16 32 0 -3
BITMAP
0000
0000
0000
0000
0000
0000
0000
380e
380e
380e
380e
380e
380e
380e
380e
3ffe
3ffe
3ffe
380e
380e
380e
380e
380e
380e
380e
380e
0000
0000
0000
0000
0000
0000
ENDCHAR
STARTCHAR CAPITAL LETTER I
ENCODING 73
SWIDTH 667 0
DWIDTH 16 0
BBX 16 32 0 -3
BITMAP
0000
0000
0000
0000
0000
0000
0000
0ff8
0ff8
0ff8
01c0
01c0
01c0
01c0
01c0
01c0
01c0
01c0
01c0
01c0
01c0
01c0
01c0
0ff8
0ff8
0ff8
0000
0000
0000
0000
0000
0000
ENDCHAR
STARTCHAR CAPITAL LETTER J
ENCODING 74
SWIDTH 667 0
DWIDTH 16 0
BBX 16 32 0 -3
BITMAP
0000
0000
0000
0000
0000
0000
0000
000e
000e
000e
000e
000e
000e
000e
000e
000e
000e
000e
000e
000e
180e
3c0e
1e1e
1ffe
0ffc
03f8
0000
0000
0000
0000
0000
0000
ENDCHAR
STARTCHAR CAPITAL LETTER K
ENCODING 75
SWIDTH 667 0
DWIDTH 16 0
BBX 16 32 0 -3
BITMAP
0000
0000
0000
0000
0000
0000
0000
380c
381e
383c
3878
38f0
39e0
3bc0
3f80
3f00
3f00
3f80
3bc0
39e0
38f0
3878
383c
381e
380e
3804
0000
0000
0000
0000
0000
0000
ENDCHAR
STARTCHAR CAPITAL LETTER L
ENCODING 76
SWIDTH 667 0
DWIDTH 16 0
BBX 16 32 0 -3
BITMAP
0000
0000
0000
0000
0000
0000
0000
3800
3800
3800
3800
3800
3800
3800
3800
3800
3800
3800
3800
3800
3800
3800
3800
3ffe
3ffe
3ffe
0000
0000
0000
0000
0000
0000
ENDCHAR
STARTCHAR CAPITAL LETTER M
ENCODING 77
SWIDTH 667 0
DWIDTH 16 0
BBX 16 32 0 -3
BITMAP
0000
0000
0000
0000
0000
0000
0000
380e
380e
3c1e
3c1e
3e3e
3f7e
3ffe
3bee
3bee
39ce
39ce
388e
380e
380e
380e
380e
380e
380e
380e
0000
0000
0000
0000
0000
0000
ENDCHAR
STARTCHAR CAPITAL LETTER N
ENCODING 78
SWIDTH 667 0
DWIDTH 16 0
BBX 16 32 0 -3
BITMAP
0000
0000
0000
0000
0000
0000
0000
380e
3c0e
3c0e
3e0e
3e0e
3f0e
3b0e
3b8e
398e
39ce
38ce
38ee
386e
387e
383e
383e
381e
381e
380e
0000
0000
0000
0000
0000
0000
ENDCHAR
STARTCHAR CAPITAL LETTER O
ENCODING 79
SWIDTH 667 0
DWIDTH 16 0
BBX 16 32 0 -3
BITMAP
0000
0000
0000
0000
0000
0000
0000
03e0
0ff8
1ffc
1e3c
3c1e
380e
380e
380e
380e
380e
380e
380e
380e
380e
3c1e
1e3c
1ffc
0ff8
03e0
0000
0000
0000
0000
0000
0000
ENDCHAR
STARTCHAR CAPITAL LETTER P
ENCODING 80
SWIDTH 667 0
DWIDTH 16 0
BBX 16 32 0 -3
BITMAP
0000
0000
0000
0000
0000
0000
3fe0
3ff8
3ffc
383c
381e
380e
380e
381e
383c
3ffc
3ff8
3fe0
3800
3800
3800
3800
3800
3800
3800
0000
0000
0000
0000
0000
0000
0000
ENDCHAR
STARTCHAR CAPITAL LETTER Q
ENCODING 81
SWIDTH 667 0
DWIDTH 16 0
BBX 16 32 0 -3
BITMAP
0000
0000
0000
0000
0000
0000
0000
03e0
0ff8
1ffc
1e3c
3c1e
380e
380e
380e
380e
380e
380e
380e
380e
387e
3c7e
1e7c
1ffc
0ffe
03ef
0007
0000
0000
0000
0000
0000
ENDCHAR
STARTCHAR CAPITAL LETTER R
ENCODING 82
SWIDTH 667 0
DWIDTH 16 0
BBX 16 32 0 -3
BITMAP
0000
0000
0000
0000
0000
0000
0000
3fe0
3ff8
3ffc
383c
381e
380e
380e
381e
383c
3ffc
3ff8
3ff0
3870
3878
3838
381c
381c
380e
380e
0000
0000
0000
0000
0000
0000
ENDCHAR
STARTCHAR CAPITAL LETTER S
ENCODING 83
SWIDTH 667 0
DWIDTH 16 0
BBX 16 32 0 -3
BITMAP
0000
0000
0000
0000
0000
0000
0000
03f0
0ffc
1ffc
1e1e
3c1e
380c
3c00
1f00
1fe0
07f8
00fc
001e
000e
100e
380e
3c1e
3ffc
1ffc
07f0
0000
0000
0000
0000
0000
0000
ENDCHAR
STARTCHAR CAPITAL LETTER T
ENCODING 84
SWIDTH 667 0
DWIDTH 16 0
BBX 16 32 0 -3
BITMAP
0000
0000
0000
0000
0000
0000
3ffe
3ffe
3ffe
01c0
01c0
01c0
01c0
01c0
01c0
01c0
01c0
01c0
01c0
01c0
01c0
01c0
01c0
01c0
01c0
0000
0000
0000
0000
0000
0000
0000
ENDCHAR
STARTCHAR CAPITAL LETTER U
ENCODING 85
SWIDTH 667 0
DWIDTH 16 0
BBX 16 32 0 -3
BITMAP
0000
0000
0000
0000
0000
0000
0000
380e
380e
380e
380e
380e
380e
380e
380e
380e
380e
380e
380e
380e
380e
3c1e
1e3e
1ffc
0ff8
03e0
0000
0000
0000
0000
0000
0000
ENDCHAR
STARTCHAR CAPITAL LETTER V
ENCODING 86
SWIDTH 667 0
DWIDTH 16 0
BBX 16 32 0 -3
BITMAP
0000
0000
0000
0000
0000
0000
0000
700e
700e
780e
381c
381c
381c
1c38
1c38
1c38
0e70
0e70
0e70
0660
07e0
07e0
03c0
03c0
0180
0180
0000
0000
0000
0000
0000
0000
ENDCHAR
STARTCHAR CAPITAL LETTER W
ENCODING 87
SWIDTH 667 0
DWIDTH 16 0
BBX 16 32 0 -3
BITMAP
0000
0000
0000
0000
0000
0000
0000
380e
380e
380e
380e
380e
380e
380e
388e
39ce
39ce
3bee
3bee
3f7e
3f7e
3e3e
3c1e
3c1e
380e
380e
0000
0000
0000
0000
0000
0000
ENDCHAR
STARTCHAR CAPITAL LETTER X
ENCODING 88
SWIDTH 667 0
DWIDTH 16 0
BBX 16 32 0 -3
BITMAP
0000
0000
0000
0000
0000
0000
0000
180c
380e
3c1e
1c1c
0e38
0e38
0770
03e0
03e0
01c0
03e0
03e0
0770
0e38
0e38
1c1c
3c1e
380e
180c
0000
0000
0000
0000
0000
0000
ENDCHAR
STARTCHAR CAPITAL LETTER Y
ENCODING 89
SWIDTH 667 0
DWIDTH 16 0
BBX 16 32 0 -3
BITMAP
0000
0000
0000
0000
0000
0000
380e
380e
1c1c
1c1c
0e38
0e38
0770
0770
03e0
03e0
01c0
01c0
01c0
01c0
01c0
01c0
01c0
01c0
01c0
0000
0000
0000
0000
0000
0000
0000
ENDCHAR
STARTCHAR CAPITAL LETTER Z
ENCODING 90
SWIDTH 667 0
DWIDTH 16 0
BBX 16 32 0 -3
BITMAP
0000
0000
0000
0000
0000
0000
0000
3ffe
3ffe
3ffe
000e
000e
001e
003c
0078
00f0
01e0
03c0
0780
0f00
1e00
3c00
3800
3ffe
3ffe
3ffe
0000
0000
0000
0000
0000
0000
ENDCHAR
STARTCHAR LEFT SQUARE BRACKET
ENCODING 91
SWIDTH 667 0
DWIDTH 16 0
BBX 16 32 0 -3
BITMAP
0000
0000
0000
0000
0000
0000
07f0
07f0
07f0
0700
0700
0700
0700
0700
0700
0700
0700
0700
0700
0700
0700
0700
0700
0700
07f0
07f0
07f0
0000
0000
0000
0000
0000
ENDCHAR
STARTCHAR REVERSE SOLIDUS
ENCODING 92
SWIDTH 667 0
DWIDTH 16 0
BBX 16 32 0 -3
BITMAP
0000
0000
0000
0000
0000
0000
2000
7000
7000
3800
3c00
1c00
0e00
0f00
0700
0380
03c0
01c0
00e0
00f0
0070
0038
003c
001c
000e
000e
0004
0000
0000
0000
0000
0000
ENDCHAR
STARTCHAR RIGHT SQUARE BRACKET
ENCODING 93
SWIDTH 667 0
DWIDTH 16 0
BBX 16 32 0 -3
BITMAP
0000
0000
0000
0000
0000
0000
0fe0
0fe0
0fe0
00e0
00e0
00e0
00e0
00e0
00e0
00e0
00e0
00e0
00e0
00e0
00e0
00e0
00e0
00e0
0fe0
0fe0
0fe0
0000
0000
0000
0000
0000
ENDCHAR
STARTCHAR CIRCUMFLEX ACCENT
ENCODING 94
SWIDTH 667 0
DWIDTH 16 0
BBX 16 32 0 -3
BITMAP
0000
0000
0000
0000
0000
0080
01c0
03e0
07f0
0f78
1e3c
3c1e
0000
0000
0000
0000
0000
0000
0000
0000
0000
0000
0000
0000
0000
0000
0000
0000
0000
0000
0000
0000
ENDCHAR
STARTCHAR LOW LINE
ENCODING 95
SWIDTH 667 0
DWIDTH 16 0
BBX 16 32 0 -3
BITMAP
0000
0000
0000
0000
0000
0000
0000
0000
0000
0000
0000
0000
0000
0000
0000
0000
0000
0000
0000
0000
0000
0000
0000
0000
0000
0000
0000
ffff
ffff
ffff
0000
0000
ENDCHAR
STARTCHAR GRAVE ACCENT
ENCODING 96
SWIDTH 667 0
DWIDTH 16 0
BBX 16 32 0 -3
BITMAP
0000
0000
0000
0000
0000
0000
0000
00e0
01c0
0380
03c0
03e0
03e0
03e0
01c0
0000
0000
0000
0000
0000
0000
0000
0000
0000
0000
0000
0000
0000
0000
0000
0000
0000
ENDCHAR
STARTCHAR SMALL LETTER a
ENCODING 97
SWIDTH 667 0
DWIDTH 16 0
BBX 16 32 0 -3
BITMAP
0000
0000
0000
0000
0000
0000
0000
0000
0000
0000
0000
01f0
07fc
0ffc
1e1e
1c0e
03fe
0ffe
1ffe
3c0e
381e
383e
387e
3ffe
1fee
0fce
0000
0000
0000
0000
0000
0000
ENDCHAR
STARTCHAR SMALL LETTER b
ENCODING 98
SWIDTH 667 0
DWIDTH 16 0
BBX 16 32 0 -3
BITMAP
0000
0000
0000
0000
0000
0000
0000
3800
3800
3800
3800
3800
39e0
3bf8
3ffc
3e1c
3c0e
3c0e
380e
380e
3c0e
3e0e
3f1c
3ffc
3bf8
38e0
0000
0000
0000
0000
0000
0000
ENDCHAR
STARTCHAR SMALL LETTER c
ENCODING 99
SWIDTH 667 0
DWIDTH 16 0
BBX 16 32 0 -3
BITMAP
0000
0000
0000
0000
0000
0000
0000
0000
0000
0000
0000
0000
03f8
0ffc
1ffe
1e0e
3c04
3800
3800
3800
3800
3c04
1e0e
1ffe
0ffc
03f8
0000
0000
0000
0000
0000
0000
ENDCHAR
STARTCHAR c64
ENCODING 100
SWIDTH 500 0
DWIDTH 16 0
BBX 16 32 0 -3
BITMAP
0000
0000
0000
0000
0000
0000
0000
001c
001c
001c
001c
001c
079c
1fdc
3ffc
387c
703c
703c
701c
701c
703c
707c
38fc
3ffc
1fdc
071c
0000
0000
0000
0000
0000
0000
ENDCHAR
STARTCHAR SMALL LETTER e
ENCODING 101
SWIDTH 667 0
DWIDTH 16 0
BBX 16 32 0 -3
BITMAP
0000
0000
0000
0000
0000
0000
0000
0000
0000
0000
0000
0000
03e0
0ff8
1ffc
1c1c
380e
380e
3ffe
3ffe
3800
3804
1c0e
1ffe
0ffc
03f0
0000
0000
0000
0000
0000
0000
ENDCHAR
STARTCHAR SMALL LETTER f
ENCODING 102
SWIDTH 667 0
DWIDTH 16 0
BBX 16 32 0 -3
BITMAP
0000
0000
0000
0000
0000
0000
0000
00f0
01f0
03f0
0380
0380
0380
0ff0
0ff0
0ff0
0380
0380
0380
0380
0380
0380
0380
0380
0380
0380
0000
0000
0000
0000
0000
0000
ENDCHAR
STARTCHAR c67
ENCODING 103
SWIDTH 500 0
DWIDTH 16 0
BBX 16 32 0 -3
BITMAP
0000
0000
0000
0000
0000
0000
0000
0000
0000
0000
0000
0000
038e
0fee
1ffe
1c7e
383e
381e
381e
381e
381e
383e
1c7e
1fee
0fce
038e
000e
000e
001e
07fc
07f8
03e0
ENDCHAR
STARTCHAR SMALL LETTER h
ENCODING 104
SWIDTH 667 0
DWIDTH 16 0
BBX 16 32 0 -3
BITMAP
0000
0000
0000
0000
0000
0000
3800
3800
3800
3800
3800
3800
39f0
3bfc
3ffc
3e1e
3c0e
380e
380e
380e
380e
380e
380e
380e
380e
380e
0000
0000
0000
0000
0000
0000
ENDCHAR
STARTCHAR SMALL LETTER i
ENCODING 105
SWIDTH 667 0
DWIDTH 16 0
BBX 16 32 0 -3
BITMAP
0000
0000
0000
0000
0000
0000
01c0
03e0
03e0
01c0
0000
0000
01c0
01c0
01c0
01c0
01c0
01c0
01c0
01c0
01c0
01c0
01c0
01c0
01c0
01c0
0000
0000
0000
0000
0000
0000
ENDCHAR
STARTCHAR SMALL LETTER j
ENCODING 106
SWIDTH 667 0
DWIDTH 16 0
BBX 16 32 0 -3
BITMAP
0000
0000
0000
0000
0000
0000
00e0
01f0
01f0
00e0
0000
0000
00e0
00e0
00e0
00e0
00e0
00e0
00e0
00e0
00e0
00e0
00e0
00e0
00e0
00e0
00e0
01e0
1fe0
1fc0
0f00
0000
ENDCHAR
STARTCHAR SMALL LETTER k
ENCODING 107
SWIDTH 667 0
DWIDTH 16 0
BBX 16 32 0 -3
BITMAP
0000
0000
0000
0000
0000
0000
0000
0000
3800
3800
3818
383c
3878
38f0
39e0
3bc0
3f80
3f00
3f80
3fc0
3be0
39f0
38f8
387c
383c
3818
0000
0000
0000
0000
0000
0000
ENDCHAR
STARTCHAR SMALL LETTER l
ENCODING 108
SWIDTH 667 0
DWIDTH 16 0
BBX 16 32 0 -3
BITMAP
0000
0000
0000
0000
0000
0000
0000
0380
0380
0380
0380
0380
0380
0380
0380
0380
0380
0380
0380
0380
0380
0380
03c0
03f0
01f0
00f0
0000
0000
0000
0000
0000
0000
ENDCHAR
STARTCHAR SMALL LETTER m
ENCODING 109
SWIDTH 667 0
DWIDTH 16 0
BBX 16 32 0 -3
BITMAP
0000
0000
0000
0000
0000
0000
0000
0000
0000
0000
0000
0000
77b8
7ffc
7ffe
79ce
71ce
71ce
71ce
71ce
71ce
71ce
71ce
71ce
71ce
71ce
0000
0000
0000
0000
0000
0000
ENDCHAR
STARTCHAR SMALL LETTER n
ENCODING 110
SWIDTH 667 0
DWIDTH 16 0
BBX 16 32 0 -3
BITMAP
0000
0000
0000
0000
0000
0000
0000
0000
0000
0000
0000
0000
39f0
3bfc
3ffc
3e3e
3c1e
380e
380e
380e
380e
380e
380e
380e
380e
380e
0000
0000
0000
0000
0000
0000
ENDCHAR
STARTCHAR SMALL LETTER o
ENCODING 111
SWIDTH 667 0
DWIDTH 16 0
BBX 16 32 0 -3
BITMAP
0000
0000
0000
0000
0000
0000
0000
0000
0000
0000
0000
0000
03e0
0ff8
1ffc
1e3c
3c1e
380e
380e
380e
380e
3c1e
1e3c
1ffc
0ff8
03e0
0000
0000
0000
0000
0000
0000
ENDCHAR
STARTCHAR c70
ENCODING 112
SWIDTH 500 0
DWIDTH 16 0
BBX 16 32 0 -3
BITMAP
0000
0000
0000
0000
0000
0000
0000
0000
0000
0000
0000
0000
38e0
3bf8
3ffc
3f1c
3e0e
3c0e
3c0e
3c0e
3c0e
3e0e
3f1c
3bfc
39f8
38e0
3800
3800
3800
3800
3800
3800
ENDCHAR
STARTCHAR c71
ENCODING 113
SWIDTH 500 0
DWIDTH 16 0
BBX 16 32 0 -3
BITMAP
0000
0000
0000
0000
0000
0000
0000
0000
0000
0000
0000
0000
038e
0fee
1ffe
1c7e
383e
381e
381e
381e
381e
383e
1c7e
1fee
0fce
038e
000e
000e
000e
000e
000e
000e
ENDCHAR
STARTCHAR SMALL LETTER r
ENCODING 114
SWIDTH 667 0
DWIDTH 16 0
BBX 16 32 0 -3
BITMAP
0000
0000
0000
0000
0000
0000
0000
0000
0000
0000
0000
0000
38f0
3bfc
3ffc
3f1e
3e0e
3c04
3800
3800
3800
3800
3800
3800
3800
3800
0000
0000
0000
0000
0000
0000
ENDCHAR
STARTCHAR SMALL LETTER s
ENCODING 115
SWIDTH 667 0
DWIDTH 16 0
BBX 16 32 0 -3
BITMAP
0000
0000
0000
0000
0000
0000
0000
0000
0000
0000
0000
0000
07f8
1ffc
3ffe
3c0e
3800
3fc0
1ff8
03fc
001e
180e
3c1e
3ffc
1ffc
0ff0
0000
0000
0000
0000
0000
0000
ENDCHAR
STARTCHAR SMALL LETTER t
ENCODING 116
SWIDTH 667 0
DWIDTH 16 0
BBX 16 32 0 -3
BITMAP
0000
0000
0000
0000
0000
0000
0000
0000
0380
0380
0380
0380
0ff0
0ff0
0ff0
0380
0380
0380
0380
0380
0380
0380
03c0
03f0
01f0
00f0
0000
0000
0000
0000
0000
0000
ENDCHAR
STARTCHAR SMALL LETTER u
ENCODING 117
SWIDTH 667 0
DWIDTH 16 0
BBX 16 32 0 -3
BITMAP
0000
0000
0000
0000
0000
0000
0000
0000
0000
0000
0000
0000
380e
380e
380e
380e
380e
380e
380e
380e
380e
3c1e
1e3e
1ffe
0fee
03ce
0000
0000
0000
0000
0000
0000
ENDCHAR
STARTCHAR SMALL LETTER v
ENCODING 118
SWIDTH 667 0
DWIDTH 16 0
BBX 16 32 0 -3
BITMAP
0000
0000
0000
0000
0000
0000
0000
0000
0000
0000
0000
0000
700e
700e
781e
381c
3c3c
1c38
1e78
0e70
0ff0
07e0
07e0
03c0
03c0
0180
0000
0000
0000
0000
0000
0000
ENDCHAR
STARTCHAR SMALL LETTER w
ENCODING 119
SWIDTH 667 0
DWIDTH 16 0
BBX 16 32 0 -3
BITMAP
0000
0000
0000
0000
0000
0000
0000
0000
0000
0000
0000
0000
380e
380e
380e
380e
380e
380e
388e
39ce
3bee
3ffe
3f7e
3e3e
3c1e
380e
0000
0000
0000
0000
0000
0000
ENDCHAR
STARTCHAR SMALL LETTER x
ENCODING 120
SWIDTH 667 0
DWIDTH 16 0
BBX 16 32 0 -3
BITMAP
0000
0000
0000
0000
0000
0000
0000
0000
0000
0000
0000
0000
1004
380e
3c1e
1e3c
0f78
07f0
03e0
03e0
07f0
0f78
1e3c
3c1e
380e
1004
0000
0000
0000
0000
0000
0000
ENDCHAR
STARTCHAR SMALL LETTER y
ENCODING 121
SWIDTH 667 0
DWIDTH 16 0
BBX 16 32 0 -3
BITMAP
0000
0000
0000
0000
0000
0000
0000
0000
0000
0000
0000
0000
380e
380e
380e
380e
380e
380e
380e
380e
380e
3c1e
1e3e
1ffe
0fee
03ce
000e
000e
001c
0ffc
0ff8
07e0
ENDCHAR
STARTCHAR SMALL LETTER z
ENCODING 122
SWIDTH 667 0
DWIDTH 16 0
BBX 16 32 0 -3
BITMAP
0000
0000
0000
0000
0000
0000
0000
0000
0000
0000
0000
0000
3ffe
3ffe
3ffe
003c
0078
00f0
01e0
03c0
0780
0f00
1e00
3ffe
3ffe
3ffe
0000
0000
0000
0000
0000
0000
ENDCHAR
STARTCHAR LEFT CURLY BRACKET
ENCODING 123
SWIDTH 667 0
DWIDTH 16 0
BBX 16 32 0 -3
BITMAP
0000
0000
0000
0000
0000
00f0
01f0
03c0
0380
0380
0380
0380
0380
0700
0e00
0e00
0700
0380
0380
0380
0380
0380
0380
03c0
01f0
00f0
0000
0000
0000
0000
0000
0000
ENDCHAR
STARTCHAR VERTICAL LINE
ENCODING 124
SWIDTH 667 0
DWIDTH 16 0
BBX 16 32 0 -3
BITMAP
0000
0000
0000
01c0
01c0
01c0
01c0
01c0
01c0
01c0
01c0
01c0
01c0
01c0
01c0
01c0
01c0
01c0
01c0
01c0
01c0
01c0
01c0
01c0
01c0
01c0
01c0
01c0
01c0
01c0
0000
0000
ENDCHAR
STARTCHAR c7d
ENCODING 125
SWIDTH 500 0
DWIDTH 16 0
BBX 16 32 0 -3
BITMAP
0000
0000
0000
0000
0000
0780
07c0
01e0
00e0
00e0
00e0
00e0
00e0
0070
0038
0038
0070
00e0
00e0
00e0
00e0
00e0
00e0
01e0
07c0
0780
0000
0000
0000
0000
0000
0000
ENDCHAR
STARTCHAR TILDE
ENCODING 126
SWIDTH 667 0
DWIDTH 16 0
BBX 16 32 0 -3
BITMAP
0000
0f00
1f86
39ce
30fc
0078
0000
0000
0000
0000
0000
0000
0000
0000
0000
0000
0000
0000
0000
0000
0000
0000
0000
0000
0000
0000
0000
0000
0000
0000
0000
0000
ENDCHAR
STARTCHAR NO-BREAK SPACE
ENCODING 160
SWIDTH 667 0
DWIDTH 16 0
BBX 16 32 0 -3
BITMAP
0000
0000
0000
0000
0000
0000
0000
0000
0000
0000
0000
0000
0000
0000
0000
0000
0000
0000
0000
0000
0000
0000
0000
0000
0000
0000
0000
0000
0000
0000
0000
0000
ENDCHAR
STARTCHAR INVERTED EXCLAMATION MARK
ENCODING 161
SWIDTH 667 0
DWIDTH 16 0
BBX 16 32 0 -3
BITMAP
0000
0000
0000
0000
0000
0000
0000
0180
03c0
03c0
0180
0000
0000
0180
0180
0180
0180
03c0
03c0
03c0
03c0
03c0
03c0
03c0
03c0
0180
0000
0000
0000
0000
0000
0000
ENDCHAR
STARTCHAR CENT SIGN
ENCODING 162
SWIDTH 667 0
DWIDTH 16 0
BBX 16 32 0 -3
BITMAP
0000
0000
0000
0000
0000
0000
0000
00e0
00e0
00e0
03f8
0ffc
1ffe
1ffe
3cec
38e0
38e0
38e0
38e0
3cee
1ffe
1ffe
0ffc
03f8
00e0
00e0
0000
0000
0000
0000
0000
0000
ENDCHAR
STARTCHAR POUND SIGN
ENCODING 163
SWIDTH 667 0
DWIDTH 16 0
BBX 16 32 0 -3
BITMAP
0000
0000
0000
0000
0000
0000
0000
03e0
07f8
0ffc
0e38
0e10
0e00
0e00
3ffc
3ffc
3ffc
0700
0700
0700
0e00
0ff0
1ff8
3ffc
381e
100c
0000
0000
0000
0000
0000
0000
ENDCHAR
STARTCHAR ca4
ENCODING 164
SWIDTH 1000 0
DWIDTH 16 0
BBX 16 32 0 -3
BITMAP
0000
0000
0000
0000
0000
0000
0000
0000
0000
2004
700e
7bde
3ffc
1ff8
1c38
381c
381c
381c
381c
1c38
1ff8
3ffc
7bde
700e
2004
0000
0000
0000
0000
0000
0000
0000
ENDCHAR
STARTCHAR YEN SIGN
ENCODING 165
SWIDTH 667 0
DWIDTH 16 0
BBX 16 32 0 -3
BITMAP
0000
0000
0000
0000
0000
0000
0000
180c
3c1e
1e3c
0f78
07f0
03e0
1ffc
1ffc
1ffc
01c0
1ffc
1ffc
1ffc
01c0
01c0
01c0
01c0
01c0
01c0
0000
0000
0000
0000
0000
0000
ENDCHAR
STARTCHAR BROKEN BAR
ENCODING 166
SWIDTH 667 0
DWIDTH 16 0
BBX 16 32 0 -3
BITMAP
0000
0000
0000
01c0
01c0
01c0
01c0
01c0
01c0
01c0
01c0
01c0
01c0
01c0
01c0
0000
0000
0000
01c0
01c0
01c0
01c0
01c0
01c0
01c0
01c0
01c0
01c0
01c0
01c0
0000
0000
ENDCHAR
STARTCHAR PARAGRAPH SIGN
ENCODING 167
SWIDTH 667 0
DWIDTH 16 0
BBX 16 32 0 -3
BITMAP
0000
0000
0000
0000
0000
0000
03e0
0ff8
1ffc
1c3e
380e
3804
3e00
1ff0
0ffc
1c3e
380e
3e1c
1ff8
07fc
003e
100e
380e
3e1c
1ffc
0ff8
03e0
0000
0000
0000
0000
0000
ENDCHAR
STARTCHAR DIAERESIS
ENCODING 168
SWIDTH 667 0
DWIDTH 16 0
BBX 16 32 0 -3
BITMAP
0000
0000
0000
0000
0000
0000
0c18
1e3c
1e3c
0c18
0000
0000
0000
0000
0000
0000
0000
0000
0000
0000
0000
0000
0000
0000
0000
0000
0000
0000
0000
0000
0000
0000
ENDCHAR
STARTCHAR COPYRIGHT SIGN
ENCODING 169
SWIDTH 667 0
DWIDTH 16 0
BBX 16 32 0 -3
BITMAP
0000
0000
0000
0000
0000
0000
03e0
0ff8
1ffc
1c1c
380e
31c6
73e7
7777
7637
7607
7607
7637
7777
73e7
31c6
380e
1c1c
1ffc
0ff8
03e0
0000
0000
0000
0000
0000
0000
ENDCHAR
STARTCHAR FEMININE ORDINAL INDICATOR
ENCODING 170
SWIDTH 667 0
DWIDTH 16 0
BBX 16 32 0 -3
BITMAP
07f0
0ff8
0ff8
0c38
03f8
07f8
0ff8
0e38
0ff8
0ff8
07f8
0000
0ff8
0ff8
0ff8
0000
0000
0000
0000
0000
0000
0000
0000
0000
0000
0000
0000
0000
0000
0000
0000
0000
ENDCHAR
STARTCHAR cab
ENCODING 171
SWIDTH 1000 0
DWIDTH 16 0
BBX 16 32 0 -3
BITMAP
0000
0000
0000
0000
0000
01dc
01dc
03b8
03b8
0770
0770
0ee0
0ee0
1dc0
19c0
3b80
3b80
1dc0
1dc0
0ee0
0ee0
0770
0770
03b8
03b8
01dc
01dc
0000
0000
0000
0000
0000
ENDCHAR
STARTCHAR NOT SIGN
ENCODING 172
SWIDTH 667 0
DWIDTH 16 0
BBX 16 32 0 -3
BITMAP
0000
0000
0000
0000
0000
0000
0000
0000
0000
0000
0000
0000
0000
0000
3ffe
3ffe
3ffe
000e
000e
000e
000e
000e
0000
0000
0000
0000
0000
0000
0000
0000
0000
0000
ENDCHAR
STARTCHAR SOFT HYPHEN
ENCODING 173
SWIDTH 667 0
DWIDTH 16 0
BBX 16 32 0 -3
BITMAP
0000
0000
0000
0000
0000
0000
0000
0000
0000
0000
0000
0000
0000
0000
0000
7ffe
7ffe
7ffe
0000
0000
0000
0000
0000
0000
0000
0000
0000
0000
0000
0000
0000
0000
ENDCHAR
STARTCHAR cae
ENCODING 174
SWIDTH 1000 0
DWIDTH 16 0
BBX 16 32 0 -3
BITMAP
0000
0000
0000
0000
0000
0000
03e0
0ff8
1ffc
1c1c
380e
37e6
77f7
7637
7637
77f7
77e7
77c7
76e7
7677
3636
380e
1c1c
1ffc
0ff8
03e0
0000
0000
0000
0000
0000
0000
ENDCHAR
STARTCHAR MACRON
ENCODING 175
SWIDTH 667 0
DWIDTH 16 0
BBX 16 32 0 -3
BITMAP
7ffe
7ffe
7ffe
0000
0000
0000
0000
0000
0000
0000
0000
0000
0000
0000
0000
0000
0000
0000
0000
0000
0000
0000
0000
0000
0000
0000
0000
0000
0000
0000
0000
0000
ENDCHAR
STARTCHAR DEGREE SIGN, RING ABOVE
ENCODING 176
SWIDTH 667 0
DWIDTH 16 0
BBX 16 32 0 -3
BITMAP
0000
0000
0000
0000
0000
01c0
03e0
0360
03e0
01c0
0000
0000
0000
0000
0000
0000
0000
0000
0000
0000
0000
0000
0000
0000
0000
0000
0000
0000
0000
0000
0000
0000
ENDCHAR
STARTCHAR PLUS-MINUS SIGN
ENCODING 177
SWIDTH 667 0
DWIDTH 16 0
BBX 16 32 0 -3
BITMAP
0000
0000
0000
0000
0000
0000
0000
0000
01c0
01c0
01c0
01c0
1ffc
1ffc
1ffc
01c0
01c0
01c0
01c0
0000
0000
1ffc
1ffc
1ffc
0000
0000
0000
0000
0000
0000
0000
0000
ENDCHAR
STARTCHAR SUPERSCRIPT TWO
ENCODING 178
SWIDTH 667 0
DWIDTH 16 0
BBX 16 32 0 -3
BITMAP
07e0
0ff0
1ff8
1c78
0078
00f0
01e0
03c0
0780
0f00
1e00
1ff8
1ff8
1ff8
0000
0000
0000
0000
0000
0000
0000
0000
0000
0000
0000
0000
0000
0000
0000
0000
0000
0000
ENDCHAR
STARTCHAR SUPERSCRIPT THREE
ENCODING 179
SWIDTH 667 0
DWIDTH 16 0
BBX 16 32 0 -3
BITMAP
07f0
0ff8
0ffc
0c1c
001c
001c
03f8
03f8
001c
0c1c
0e1c
0ffc
07f8
03f0
0000
0000
0000
0000
0000
0000
0000
0000
0000
0000
0000
0000
0000
0000
0000
0000
0000
0000
ENDCHAR
STARTCHAR ACUTE ACCENT
ENCODING 180
SWIDTH 667 0
DWIDTH 16 0
BBX 16 32 0 -3
BITMAP
0000
0000
0040
00e0
01f0
03c0
0300
0000
0000
0000
0000
0000
0000
0000
0000
0000
0000
0000
0000
0000
0000
0000
0000
0000
0000
0000
0000
0000
0000
0000
0000
0000
ENDCHAR
STARTCHAR MICRO SIGN
ENCODING 181
SWIDTH 667 0
DWIDTH 16 0
BBX 16 32 0 -3
BITMAP
0000
0000
0000
0000
0000
0000
0000
0000
0000
0000
0000
0000
038e
038e
038e
038e
071c
071c
071c
071c
0f38
0ff8
0ffc
0dfe
1c0e
1c06
1c00
1c00
3800
3800
3800
3800
ENDCHAR
STARTCHAR PILCROW SIGN
ENCODING 182
SWIDTH 667 0
DWIDTH 16 0
BBX 16 32 0 -3
BITMAP
0000
0000
0000
0000
0000
0000
0000
03fe
0ffe
1ff6
1ff6
3ff6
3ff6
3ff6
1ff6
1ff6
0ff6
03f6
0036
0036
0036
0036
0036
0036
003e
003e
0000
0000
0000
0000
0000
0000
ENDCHAR
STARTCHAR MIDDLE DOT
ENCODING 183
SWIDTH 667 0
DWIDTH 16 0
BBX 16 32 0 -3
BITMAP
0000
0000
0000
0000
0000
0000
0000
0000
0000
0000
0000
0000
0000
0180
03c0
07e0
07e0
03c0
0180
0000
0000
0000
0000
0000
0000
0000
0000
0000
0000
0000
0000
0000
ENDCHAR
STARTCHAR CEDILLA
ENCODING 184
SWIDTH 667 0
DWIDTH 16 0
BBX 16 32 0 -3
BITMAP
0000
0000
0000
0000
0000
0000
0000
0000
0000
0000
0000
0000
0000
0000
0000
0000
0000
0000
0000
0000
0000
0000
0000
0000
0000
0000
0380
03e0
03f0
0070
07f0
07e0
ENDCHAR
STARTCHAR SUPERSCRIPT ONE
ENCODING 185
SWIDTH 667 0
DWIDTH 16 0
BBX 16 32 0 -3
BITMAP
01c0
03c0
07c0
07c0
01c0
01c0
01c0
01c0
01c0
01c0
01c0
07f0
07f0
07f0
0000
0000
0000
0000
0000
0000
0000
0000
0000
0000
0000
0000
0000
0000
0000
0000
0000
0000
ENDCHAR
STARTCHAR MASCULINE ORDINAL INDICATOR
ENCODING 186
SWIDTH 667 0
DWIDTH 16 0
BBX 16 32 0 -3
BITMAP
03e0
07f0
0ff8
0e38
0e38
0e38
0e38
0e38
0ff8
07f0
03e0
0000
0ff8
0ff8
0ff8
0000
0000
0000
0000
0000
0000
0000
0000
0000
0000
0000
0000
0000
0000
0000
0000
0000
ENDCHAR
STARTCHAR RIGHT ANGLE QUOTATION MARK
ENCODING 187
SWIDTH 667 0
DWIDTH 16 0
BBX 16 32 0 -3
BITMAP
0000
0000
0000
0000
0000
1dc0
1dc0
0ee0
0ee0
0770
0770
03b8
03b8
01dc
01cc
00ee
00ee
01dc
01dc
03b8
03b8
0770
0770
0ee0
0ee0
1dc0
1dc0
0000
0000
0000
0000
0000
ENDCHAR
STARTCHAR VULGAR FRACTION ONE QUARTER
ENCODING 188
SWIDTH 667 0
DWIDTH 16 0
BBX 16 32 0 -3
BITMAP
0000
0000
0000
0e00
1e00
3e00
0e00
0e00
0e00
0e04
0e0e
3f1e
3f3c
3f78
00f0
01e0
03c0
079c
0f3c
1e7c
3cfc
79dc
339c
03fe
03fe
03fe
001c
001c
0000
0000
0000
0000
ENDCHAR
STARTCHAR cbd
ENCODING 189
SWIDTH 1000 0
DWIDTH 16 0
BBX 16 32 0 -3
BITMAP
0000
0000
0000
0e00
1e00
3e00
0e00
0e00
0e00
0e04
0e0e
3f1e
3f3c
3f78
00f0
01e0
03c0
07fc
0ffe
1efe
3c4e
781e
303c
0078
00f0
01fe
01fe
01fe
0000
0000
0000
0000
ENDCHAR
STARTCHAR cbe
ENCODING 190
SWIDTH 1000 0
DWIDTH 16 0
BBX 16 32 0 -3
BITMAP
0000
0000
0000
1f00
3f80
3f80
1380
0f80
0f00
0f84
138e
3f9e
3fbc
1f78
00f0
01e0
03c0
079c
0f3c
1e7c
3cfc
79dc
339c
03fe
03fe
03fe
001c
001c
0000
0000
0000
0000
ENDCHAR
STARTCHAR cbf
ENCODING 191
SWIDTH 1000 0
DWIDTH 16 0
BBX 16 32 0 -3
BITMAP
0000
0000
0000
0000
0000
0000
0000
00c0
01e0
01e0
00c0
0000
0000
00e0
00e0
01e0
03c0
0f80
1f00
3c00
3800
381c
381c
3c38
1ff8
0ff0
03c0
0000
0000
0000
0000
0000
ENDCHAR
STARTCHAR CAPITAL LETTER A WITH GRAVE ACCENT
ENCODING 192
SWIDTH 667 0
DWIDTH 16 0
BBX 16 32 0 -3
BITMAP
0000
0100
0380
07c0
01e0
0060
0000
03e0
07f0
0ff8
1e3c
1c1c
3c1e
380e
380e
380e
3ffe
3ffe
3ffe
380e
380e
380e
380e
380e
380e
380e
0000
0000
0000
0000
0000
0000
ENDCHAR
STARTCHAR CAPITAL LETTER A WITH ACUTE ACCENT
ENCODING 193
SWIDTH 667 0
DWIDTH 16 0
BBX 16 32 0 -3
BITMAP
0000
0040
00e0
01f0
03c0
0300
0000
03e0
07f0
0ff8
1e3c
1c1c
3c1e
380e
380e
380e
3ffe
3ffe
3ffe
380e
380e
380e
380e
380e
380e
380e
0000
0000
0000
0000
0000
0000
ENDCHAR
STARTCHAR CAPITAL LETTER A WITH CIRCUMFLEX ACCENT
ENCODING 194
SWIDTH 667 0
DWIDTH 16 0
BBX 16 32 0 -3
BITMAP
0000
01c0
03e0
07f0
0f78
1e3c
0000
03e0
07f0
0ff8
1e3c
1c1c
3c1e
380e
380e
380e
3ffe
3ffe
3ffe
380e
380e
380e
380e
380e
380e
380e
0000
0000
0000
0000
0000
0000
ENDCHAR
STARTCHAR CAPITAL LETTER A WITH TILDE
ENCODING 195
SWIDTH 667 0
DWIDTH 16 0
BBX 16 32 0 -3
BITMAP
0000
0f00
1f86
39ce
30fc
0078
0000
03e0
07f0
0ff8
1e3c
1c1c
3c1e
380e
380e
380e
3ffe
3ffe
3ffe
380e
380e
380e
380e
380e
380e
380e
0000
0000
0000
0000
0000
0000
ENDCHAR
STARTCHAR CAPITAL LETTER A WITH DIAERESIS
ENCODING 196
SWIDTH 667 0
DWIDTH 16 0
BBX 16 32 0 -3
BITMAP
0000
0000
0c18
1e3c
1e3c
0c18
0000
03e0
07f0
0ff8
1e3c
1c1c
3c1e
380e
380e
380e
3ffe
3ffe
3ffe
380e
380e
380e
380e
380e
380e
380e
0000
0000
0000
0000
0000
0000
ENDCHAR
STARTCHAR CAPITAL LETTER A WITH RING ABOVE
ENCODING 197
SWIDTH 667 0
DWIDTH 16 0
BBX 16 32 0 -3
BITMAP
0000
01c0
03e0
0360
03e0
01c0
0000
03e0
07f0
0ff8
1e3c
1c1c
3c1e
380e
380e
380e
3ffe
3ffe
3ffe
380e
380e
380e
380e
380e
380e
380e
0000
0000
0000
0000
0000
0000
ENDCHAR
STARTCHAR CAPITAL DIPHTHONG A WITH E
ENCODING 198
SWIDTH 667 0
DWIDTH 16 0
BBX 16 32 0 -3
BITMAP
0000
0000
0000
0000
0000
0000
0000
07fe
1ffe
3ffe
3ce0
78e0
70e0
70e0
70fe
7ffe
7ffe
7fe0
70e0
70e0
70e0
70e0
70e0
70fe
70fe
70fe
0000
0000
0000
0000
0000
0000
ENDCHAR
STARTCHAR CAPITAL LETTER C WITH CEDILLA
ENCODING 199
SWIDTH 667 0
DWIDTH 16 0
BBX 16 32 0 -3
BITMAP
0000
0000
0000
0000
0000
0000
0000
03f0
0ff8
1ffc
1e1e
3c0e
3804
3800
3800
3800
3800
3800
3800
3800
3804
3c0e
1e1e
1ffc
0ff8
03f0
0380
03e0
03f0
0070
07f0
07e0
ENDCHAR
STARTCHAR CAPITAL LETTER E WITH GRAVE ACCENT
ENCODING 200
SWIDTH 667 0
DWIDTH 16 0
BBX 16 32 0 -3
BITMAP
0000
0100
0380
07c0
01e0
0060
0000
3ffe
3ffe
3ffe
3800
3800
3800
3800
3800
3ff0
3ff0
3ff0
3800
3800
3800
3800
3800
3ffe
3ffe
3ffe
0000
0000
0000
0000
0000
0000
ENDCHAR
STARTCHAR CAPITAL LETTER E WITH ACUTE ACCENT
ENCODING 201
SWIDTH 667 0
DWIDTH 16 0
BBX 16 32 0 -3
BITMAP
0000
0040
00e0
01f0
03c0
0300
0000
3ffe
3ffe
3ffe
3800
3800
3800
3800
3800
3ff0
3ff0
3ff0
3800
3800
3800
3800
3800
3ffe
3ffe
3ffe
0000
0000
0000
0000
0000
0000
ENDCHAR
STARTCHAR CAPITAL LETTER E WITH CIRCUMFLEX ACCENT
ENCODING 202
SWIDTH 667 0
DWIDTH 16 0
BBX 16 32 0 -3
BITMAP
0000
01c0
03e0
07f0
0f78
1e3c
0000
3ffe
3ffe
3ffe
3800
3800
3800
3800
3800
3ff0
3ff0
3ff0
3800
3800
3800
3800
3800
3ffe
3ffe
3ffe
0000
0000
0000
0000
0000
0000
ENDCHAR
STARTCHAR CAPITAL LETTER E WITH DIAERESIS
ENCODING 203
SWIDTH 667 0
DWIDTH 16 0
BBX 16 32 0 -3
BITMAP
0000
0000
0c18
1e3c
1e3c
0c18
0000
3ffe
3ffe
3ffe
3800
3800
3800
3800
3800
3ff0
3ff0
3ff0
3800
3800
3800
3800
3800
3ffe
3ffe
3ffe
0000
0000
0000
0000
0000
0000
ENDCHAR
STARTCHAR CAPITAL LETTER I WITH GRAVE ACCENT
ENCODING 204
SWIDTH 667 0
DWIDTH 16 0
BBX 16 32 0 -3
BITMAP
0000
0100
0380
07c0
01e0
0060
0000
0ff8
0ff8
0ff8
01c0
01c0
01c0
01c0
01c0
01c0
01c0
01c0
01c0
01c0
01c0
01c0
01c0
0ff8
0ff8
0ff8
0000
0000
0000
0000
0000
0000
ENDCHAR
STARTCHAR CAPITAL LETTER I WITH ACUTE ACCENT
ENCODING 205
SWIDTH 667 0
DWIDTH 16 0
BBX 16 32 0 -3
BITMAP
0000
0040
00e0
01f0
03c0
0300
0000
0ff8
0ff8
0ff8
01c0
01c0
01c0
01c0
01c0
01c0
01c0
01c0
01c0
01c0
01c0
01c0
01c0
0ff8
0ff8
0ff8
0000
0000
0000
0000
0000
0000
ENDCHAR
STARTCHAR CAPITAL LETTER I WITH CIRCUMFLEX ACCENT
ENCODING 206
SWIDTH 667 0
DWIDTH 16 0
BBX 16 32 0 -3
BITMAP
0000
01c0
03e0
07f0
0f78
1e3c
0000
0ff8
0ff8
0ff8
01c0
01c0
01c0
01c0
01c0
01c0
01c0
01c0
01c0
01c0
01c0
01c0
01c0
0ff8
0ff8
0ff8
0000
0000
0000
0000
0000
0000
ENDCHAR
STARTCHAR CAPITAL LETTER I WITH DIAERESIS
ENCODING 207
SWIDTH 667 0
DWIDTH 16 0
BBX 16 32 0 -3
BITMAP
0000
0000
0630
0f78
0f78
0630
0000
0ff8
0ff8
0ff8
01c0
01c0
01c0
01c0
01c0
01c0
01c0
01c0
01c0
01c0
01c0
01c0
01c0
0ff8
0ff8
0ff8
0000
0000
0000
0000
0000
0000
ENDCHAR
STARTCHAR CAPITAL ICELANDIC LETTER ETH
ENCODING 208
SWIDTH 667 0
DWIDTH 16 0
BBX 16 32 0 -3
BITMAP
0000
0000
0000
0000
0000
0000
0000
3fe0
3ff8
3ffc
383c
381e
380e
380e
380e
7f8e
7f8e
7f8e
380e
380e
380e
381e
383c
3ffc
3ff8
3fe0
0000
0000
0000
0000
0000
0000
ENDCHAR
STARTCHAR CAPITAL LETTER N WITH TILDE
ENCODING 209
SWIDTH 667 0
DWIDTH 16 0
BBX 16 32 0 -3
BITMAP
0000
0f00
1f86
39ce
30fc
0078
0000
380e
3c0e
3c0e
3e0e
3e0e
3f0e
3b0e
3b8e
398e
39ce
38ce
38ee
386e
387e
383e
383e
381e
381e
380e
0000
0000
0000
0000
0000
0000
ENDCHAR
STARTCHAR CAPITAL LETTER O WITH GRAVE ACCENT
ENCODING 210
SWIDTH 667 0
DWIDTH 16 0
BBX 16 32 0 -3
BITMAP
0000
0100
0380
07c0
01e0
0060
0000
03e0
0ff8
1ffc
1e3c
3c1e
380e
380e
380e
380e
380e
380e
380e
380e
380e
3c1e
1e3c
1ffc
0ff8
03e0
0000
0000
0000
0000
0000
0000
ENDCHAR
STARTCHAR CAPITAL LETTER O WITH ACUTE ACCENT
ENCODING 211
SWIDTH 667 0
DWIDTH 16 0
BBX 16 32 0 -3
BITMAP
0000
0040
00e0
01f0
03c0
0300
0000
03e0
0ff8
1ffc
1e3c
3c1e
380e
380e
380e
380e
380e
380e
380e
380e
380e
3c1e
1e3c
1ffc
0ff8
03e0
0000
0000
0000
0000
0000
0000
ENDCHAR
STARTCHAR CAPITAL LETTER O WITH CIRCUMFLEX ACCENT
ENCODING 212
SWIDTH 667 0
DWIDTH 16 0
BBX 16 32 0 -3
BITMAP
0000
01c0
03e0
07f0
0f78
1e3c
0000
03e0
0ff8
1ffc
1e3c
3c1e
380e
380e
380e
380e
380e
380e
380e
380e
380e
3c1e
1e3c
1ffc
0ff8
03e0
0000
0000
0000
0000
0000
0000
ENDCHAR
STARTCHAR CAPITAL LETTER O WITH TILDE
ENCODING 213
SWIDTH 667 0
DWIDTH 16 0
BBX 16 32 0 -3
BITMAP
0000
0f00
1f86
39ce
30fc
0078
0000
03e0
0ff8
1ffc
1e3c
3c1e
380e
380e
380e
380e
380e
380e
380e
380e
380e
3c1e
1e3c
1ffc
0ff8
03e0
0000
0000
0000
0000
0000
0000
ENDCHAR
STARTCHAR CAPITAL LETTER O WITH DIAERESIS
ENCODING 214
SWIDTH 667 0
DWIDTH 16 0
BBX 16 32 0 -3
BITMAP
0000
0000
0c18
1e3c
1e3c
0c18
0000
03e0
0ff8
1ffc
1e3c
3c1e
380e
380e
380e
380e
380e
380e
380e
380e
380e
3c1e
1e3c
1ffc
0ff8
03e0
0000
0000
0000
0000
0000
0000
ENDCHAR
STARTCHAR MULTIPLICATION SIGN
ENCODING 215
SWIDTH 667 0
DWIDTH 16 0
BBX 16 32 0 -3
BITMAP
0000
0000
0000
0000
0000
0000
0000
0000
0000
0000
0000
0000
1004
380e
3c1e
1e3c
0f78
07f0
03e0
03e0
07f0
0f78
1e3c
3c1e
380e
1004
0000
0000
0000
0000
0000
0000
ENDCHAR
STARTCHAR CAPITAL LETTER O WITH OBLIQUE STROKE
ENCODING 216
SWIDTH 667 0
DWIDTH 16 0
BBX 16 32 0 -3
BITMAP
0000
0000
0000
0000
0000
0000
0000
03e2
0fff
1fff
1e3e
3c1e
383e
387e
38fe
38ee
39ce
3bce
3f8e
3f0e
3e0e
3c1e
3e3c
7ffc
7ff8
23e0
0000
0000
0000
0000
0000
0000
ENDCHAR
STARTCHAR CAPITAL LETTER U WITH GRAVE ACCENT
ENCODING 217
SWIDTH 667 0
DWIDTH 16 0
BBX 16 32 0 -3
BITMAP
0000
0100
0380
07c0
01e0
0060
0000
380e
380e
380e
380e
380e
380e
380e
380e
380e
380e
380e
380e
380e
380e
3c1e
1e3e
1ffc
0ff8
03e0
0000
0000
0000
0000
0000
0000
ENDCHAR
STARTCHAR CAPITAL LETTER U WITH ACUTE ACCENT
ENCODING 218
SWIDTH 667 0
DWIDTH 16 0
BBX 16 32 0 -3
BITMAP
0000
0040
00e0
01f0
03c0
0300
0000
380e
380e
380e
380e
380e
380e
380e
380e
380e
380e
380e
380e
380e
380e
3c1e
1e3e
1ffc
0ff8
03e0
0000
0000
0000
0000
0000
0000
ENDCHAR
STARTCHAR CAPITAL LETTER U WITH CIRCUMFLEX ACCENT
ENCODING 219
SWIDTH 667 0
DWIDTH 16 0
BBX 16 32 0 -3
BITMAP
0000
01c0
03e0
07f0
0f78
1e3c
0000
380e
380e
380e
380e
380e
380e
380e
380e
380e
380e
380e
380e
380e
380e
3c1e
1e3e
1ffc
0ff8
03e0
0000
0000
0000
0000
0000
0000
ENDCHAR
STARTCHAR CAPITAL LETTER U WITH DIAERESIS
ENCODING 220
SWIDTH 667 0
DWIDTH 16 0
BBX 16 32 0 -3
BITMAP
0000
0000
0c18
1e3c
1e3c
0c18
0000
380e
380e
380e
380e
380e
380e
380e
380e
380e
380e
380e
380e
380e
380e
3c1e
1e3e
1ffc
0ff8
03e0
0000
0000
0000
0000
0000
0000
ENDCHAR
STARTCHAR CAPITAL LETTER Y WITH ACUTE ACCENT
ENCODING 221
SWIDTH 667 0
DWIDTH 16 0
BBX 16 32 0 -3
BITMAP
0000
0040
00e0
01f0
03c0
0300
0000
380e
380e
1c1c
1c1c
0e38
0e38
0770
0770
03e0
03e0
01c0
01c0
01c0
01c0
01c0
01c0
01c0
01c0
01c0
0000
0000
0000
0000
0000
0000
ENDCHAR
STARTCHAR CAPITAL ICELANDIC LETTER THORN
ENCODING 222
SWIDTH 667 0
DWIDTH 16 0
BBX 16 32 0 -3
BITMAP
0000
0000
0000
0000
0000
0000
0000
3800
3800
3800
3800
3ff0
3ffc
3ffc
381e
380e
380e
380e
381e
3ffc
3ffc
3ff0
3800
3800
3800
3800
0000
0000
0000
0000
0000
0000
ENDCHAR
STARTCHAR SMALL GERMAN LETTER SHARP s
ENCODING 223
SWIDTH 667 0
DWIDTH 16 0
BBX 16 32 0 -3
BITMAP
0000
0000
0000
0000
0000
0000
0000
03f0
0ffc
1ffc
1e1e
3c0e
380e
381e
39fc
39f8
39fc
381e
380e
380e
380e
380e
381e
39fc
39fc
39f0
0000
0000
0000
0000
0000
0000
ENDCHAR
STARTCHAR SMALL LETTER a WITH GRAVE ACCENT
ENCODING 224
SWIDTH 667 0
DWIDTH 16 0
BBX 16 32 0 -3
BITMAP
0000
0000
0000
0000
0000
0100
0380
07c0
01e0
0060
0000
01f0
07fc
0ffc
1e1e
1c0e
03fe
0ffe
1ffe
3c0e
381e
383e
387e
3ffe
1fee
0fce
0000
0000
0000
0000
0000
0000
ENDCHAR
STARTCHAR SMALL LETTER a WITH ACUTE ACCENT
ENCODING 225
SWIDTH 667 0
DWIDTH 16 0
BBX 16 32 0 -3
BITMAP
0000
0000
0000
0000
0000
0040
00e0
01f0
03c0
0300
0000
01f0
07fc
0ffc
1e1e
1c0e
03fe
0ffe
1ffe
3c0e
381e
383e
387e
3ffe
1fee
0fce
0000
0000
0000
0000
0000
0000
ENDCHAR
STARTCHAR SMALL LETTER a WITH CIRCUMFLEX ACCENT
ENCODING 226
SWIDTH 667 0
DWIDTH 16 0
BBX 16 32 0 -3
BITMAP
0000
0000
0000
0000
0000
01c0
03e0
07f0
0f78
1e3c
0000
01f0
07fc
0ffc
1e1e
1c0e
03fe
0ffe
1ffe
3c0e
381e
383e
387e
3ffe
1fee
0fce
0000
0000
0000
0000
0000
0000
ENDCHAR
STARTCHAR SMALL LETTER a WITH TILDE
ENCODING 227
SWIDTH 667 0
DWIDTH 16 0
BBX 16 32 0 -3
BITMAP
0000
0000
0000
0000
0000
0f00
1f86
39ce
30fc
0078
0000
01f0
07fc
0ffc
1e1e
1c0e
03fe
0ffe
1ffe
3c0e
381e
383e
387e
3ffe
1fee
0fce
0000
0000
0000
0000
0000
0000
ENDCHAR
STARTCHAR SMALL LETTER a WITH DIAERESIS
ENCODING 228
SWIDTH 667 0
DWIDTH 16 0
BBX 16 32 0 -3
BITMAP
0000
0000
0000
0000
0000
0000
0c18
1e3c
1e3c
0c18
0000
01f0
07fc
0ffc
1e1e
1c0e
03fe
0ffe
1ffe
3c0e
381e
383e
387e
3ffe
1fee
0fce
0000
0000
0000
0000
0000
0000
ENDCHAR
STARTCHAR SMALL LETTER a WITH RING ABOVE
ENCODING 229
SWIDTH 667 0
DWIDTH 16 0
BBX 16 32 0 -3
BITMAP
0000
0000
0000
0000
0000
01c0
03e0
0360
03e0
01c0
0000
01f0
07fc
0ffc
1e1e
1c0e
03fe
0ffe
1ffe
3c0e
381e
383e
387e
3ffe
1fee
0fce
0000
0000
0000
0000
0000
0000
ENDCHAR
STARTCHAR SMALL DIPHTHONG a WITH e
ENCODING 230
SWIDTH 667 0
DWIDTH 16 0
BBX 16 32 0 -3
BITMAP
0000
0000
0000
0000
0000
0000
0000
0000
0000
0000
1e38
3f7c
7ffe
73ce
21ce
01ce
07fe
1ffc
3ff8
39c0
71c0
71c4
79ce
7ffe
3ffc
1ff8
0000
0000
0000
0000
0000
0000
ENDCHAR
STARTCHAR SMALL LETTER c WITH CEDILLA
ENCODING 231
SWIDTH 667 0
DWIDTH 16 0
BBX 16 32 0 -3
BITMAP
0000
0000
0000
0000
0000
0000
0000
0000
0000
0000
0000
0000
03f8
0ffc
1ffe
1e0e
3c04
3800
3800
3800
3800
3c04
1e0e
1ffe
0ffc
03f8
0380
03e0
03f0
0070
07f0
07e0
ENDCHAR
STARTCHAR SMALL LETTER e WITH GRAVE ACCENT
ENCODING 232
SWIDTH 667 0
DWIDTH 16 0
BBX 16 32 0 -3
BITMAP
0000
0000
0000
0000
0000
0100
0380
07c0
01e0
0060
0000
0000
03e0
0ff8
1ffc
1c1c
380e
380e
3ffe
3ffe
3800
3804
1c0e
1ffe
0ffc
03f0
0000
0000
0000
0000
0000
0000
ENDCHAR
STARTCHAR SMALL LETTER e WITH ACUTE ACCENT
ENCODING 233
SWIDTH 667 0
DWIDTH 16 0
BBX 16 32 0 -3
BITMAP
0000
0000
0000
0000
0000
0040
00e0
01f0
03c0
0300
0000
0000
03e0
0ff8
1ffc
1c1c
380e
380e
3ffe
3ffe
3800
3804
1c0e
1ffe
0ffc
03f0
0000
0000
0000
0000
0000
0000
ENDCHAR
STARTCHAR SMALL LETTER e WITH CIRCUMFLEX ACCENT
ENCODING 234
SWIDTH 667 0
DWIDTH 16 0
BBX 16 32 0 -3
BITMAP
0000
0000
0000
0000
0000
01c0
03e0
07f0
0f78
1e3c
0000
0000
03e0
0ff8
1ffc
1c1c
380e
380e
3ffe
3ffe
3800
3804
1c0e
1ffe
0ffc
03f0
0000
0000
0000
0000
0000
0000
ENDCHAR
STARTCHAR SMALL LETTER e WITH DIAERESIS
ENCODING 235
SWIDTH 667 0
DWIDTH 16 0
BBX 16 32 0 -3
BITMAP
0000
0000
0000
0000
0000
0000
0c18
1e3c
1e3c
0c18
0000
0000
03e0
0ff8
1ffc
1c1c
380e
380e
3ffe
3ffe
3800
3804
1c0e
1ffe
0ffc
03f0
0000
0000
0000
0000
0000
0000
ENDCHAR
STARTCHAR SMALL LETTER i WITH GRAVE ACCENT
ENCODING 236
SWIDTH 667 0
DWIDTH 16 0
BBX 16 32 0 -3
BITMAP
0000
0000
0000
0000
0000
0100
0380
07c0
01e0
0060
0000
01c0
01c0
01c0
01c0
01c0
01c0
01c0
01c0
01c0
01c0
01c0
01c0
01c0
01c0
01c0
0000
0000
0000
0000
0000
0000
ENDCHAR
STARTCHAR SMALL LETTER i WITH ACUTE ACCENT
ENCODING 237
SWIDTH 667 0
DWIDTH 16 0
BBX 16 32 0 -3
BITMAP
0000
0000
0000
0000
0000
0040
00e0
01f0
03c0
0300
0000
01c0
01c0
01c0
01c0
01c0
01c0
01c0
01c0
01c0
01c0
01c0
01c0
01c0
01c0
01c0
0000
0000
0000
0000
0000
0000
ENDCHAR
STARTCHAR SMALL LETTER i WITH CIRCUMFLEX ACCENT
ENCODING 238
SWIDTH 667 0
DWIDTH 16 0
BBX 16 32 0 -3
BITMAP
0000
0000
0000
0000
0000
0080
01c0
03e0
0770
0e38
0000
01c0
01c0
01c0
01c0
01c0
01c0
01c0
01c0
01c0
01c0
01c0
01c0
01c0
01c0
01c0
0000
0000
0000
0000
0000
0000
ENDCHAR
STARTCHAR SMALL LETTER i WITH DIAERESIS
ENCODING 239
SWIDTH 667 0
DWIDTH 16 0
BBX 16 32 0 -3
BITMAP
0000
0000
0000
0000
0000
0000
0630
0f78
0f78
0630
0000
01c0
01c0
01c0
01c0
01c0
01c0
01c0
01c0
01c0
01c0
01c0
01c0
01c0
01c0
01c0
0000
0000
0000
0000
0000
0000
ENDCHAR
STARTCHAR SMALL ICELANDIC LETTER ETH
ENCODING 240
SWIDTH 667 0
DWIDTH 16 0
BBX 16 32 0 -3
BITMAP
0000
0000
0000
0000
0000
0000
0000
0c00
1f0e
0fbe
03fc
03f0
0ff8
3f3c
1c1c
07ee
0ffe
1ffe
3c1e
380e
380e
380e
1c1e
1ffc
0ffc
03f0
0000
0000
0000
0000
0000
0000
ENDCHAR
STARTCHAR SMALL LETTER n WITH TILDE
ENCODING 241
SWIDTH 667 0
DWIDTH 16 0
BBX 16 32 0 -3
BITMAP
0000
0000
0000
0000
0000
0f00
1f86
39ce
30fc
0078
0000
0000
39f0
3bfc
3ffc
3e3e
3c1e
380e
380e
380e
380e
380e
380e
380e
380e
380e
0000
0000
0000
0000
0000
0000
ENDCHAR
STARTCHAR SMALL LETTER o WITH GRAVE ACCENT
ENCODING 242
SWIDTH 667 0
DWIDTH 16 0
BBX 16 32 0 -3
BITMAP
0000
0000
0000
0000
0000
0100
0380
07c0
01e0
0060
0000
0000
03e0
0ff8
1ffc
1e3c
3c1e
380e
380e
380e
380e
3c1e
1e3c
1ffc
0ff8
03e0
0000
0000
0000
0000
0000
0000
ENDCHAR
STARTCHAR SMALL LETTER o WITH ACUTE ACCENT
ENCODING 243
SWIDTH 667 0
DWIDTH 16 0
BBX 16 32 0 -3
BITMAP
0000
0000
0000
0000
0000
0040
00e0
01f0
03c0
0300
0000
0000
03e0
0ff8
1ffc
1e3c
3c1e
380e
380e
380e
380e
3c1e
1e3c
1ffc
0ff8
03e0
0000
0000
0000
0000
0000
0000
ENDCHAR
STARTCHAR SMALL LETTER o WITH CIRCUMFLEX ACCENT
ENCODING 244
SWIDTH 667 0
DWIDTH 16 0
BBX 16 32 0 -3
BITMAP
0000
0000
0000
0000
0000
01c0
03e0
07f0
0f78
1e3c
0000
0000
03e0
0ff8
1ffc
1e3c
3c1e
380e
380e
380e
380e
3c1e
1e3c
1ffc
0ff8
03e0
0000
0000
0000
0000
0000
0000
ENDCHAR
STARTCHAR SMALL LETTER o WITH TILDE
ENCODING 245
SWIDTH 667 0
DWIDTH 16 0
BBX 16 32 0 -3
BITMAP
0000
0000
0000
0000
0000
0f00
1f86
39ce
30fc
0078
0000
0000
03e0
0ff8
1ffc
1e3c
3c1e
380e
380e
380e
380e
3c1e
1e3c
1ffc
0ff8
03e0
0000
0000
0000
0000
0000
0000
ENDCHAR
STARTCHAR SMALL LETTER o WITH DIAERESIS
ENCODING 246
SWIDTH 667 0
DWIDTH 16 0
BBX 16 32 0 -3
BITMAP
0000
0000
0000
0000
0000
0000
0c18
1e3c
1e3c
0c18
0000
0000
03e0
0ff8
1ffc
1e3c
3c1e
380e
380e
380e
380e
3c1e
1e3c
1ffc
0ff8
03e0
0000
0000
0000
0000
0000
0000
ENDCHAR
STARTCHAR DIVISION SIGN
ENCODING 247
SWIDTH 667 0
DWIDTH 16 0
BBX 16 32 0 -3
BITMAP
0000
0000
0000
0000
0000
0000
0000
0000
0080
01c0
03e0
01c0
0080
0000
3ffe
3ffe
3ffe
0000
0080
01c0
03e0
01c0
0080
0000
0000
0000
0000
0000
0000
0000
0000
0000
ENDCHAR
STARTCHAR SMALL LETTER o WITH OBLIQUE STROKE
ENCODING 248
SWIDTH 667 0
DWIDTH 16 0
BBX 16 32 0 -3
BITMAP
0000
0000
0000
0000
0000
0000
0000
0000
0000
0000
0000
0002
03e7
0fff
1ffe
1e3c
3c7e
38fe
39ee
3bce
3f8e
3f1e
1e3c
3ffc
7ff8
73e0
2000
0000
0000
0000
0000
0000
ENDCHAR
STARTCHAR SMALL LETTER u WITH GRAVE ACCENT
ENCODING 249
SWIDTH 667 0
DWIDTH 16 0
BBX 16 32 0 -3
BITMAP
0000
0000
0000
0000
0000
0100
0380
07c0
01e0
0060
0000
0000
380e
380e
380e
380e
380e
380e
380e
380e
380e
3c1e
1e3e
1ffe
0fee
03ce
0000
0000
0000
0000
0000
0000
ENDCHAR
STARTCHAR SMALL LETTER u WITH ACUTE ACCENT
ENCODING 250
SWIDTH 667 0
DWIDTH 16 0
BBX 16 32 0 -3
BITMAP
0000
0000
0000
0000
0000
0040
00e0
01f0
03c0
0300
0000
0000
380e
380e
380e
380e
380e
380e
380e
380e
380e
3c1e
1e3e
1ffe
0fee
03ce
0000
0000
0000
0000
0000
0000
ENDCHAR
STARTCHAR SMALL LETTER u WITH CIRCUMFLEX ACCENT
ENCODING 251
SWIDTH 667 0
DWIDTH 16 0
BBX 16 32 0 -3
BITMAP
0000
0000
0000
0000
0000
01c0
03e0
07f0
0f78
1e3c
0000
0000
380e
380e
380e
380e
380e
380e
380e
380e
380e
3c1e
1e3e
1ffe
0fee
03ce
0000
0000
0000
0000
0000
0000
ENDCHAR
STARTCHAR SMALL LETTER u WITH DIAERESIS
ENCODING 252
SWIDTH 667 0
DWIDTH 16 0
BBX 16 32 0 -3
BITMAP
0000
0000
0000
0000
0000
0000
0c18
1e3c
1e3c
0c18
0000
0000
380e
380e
380e
380e
380e
380e
380e
380e
380e
3c1e
1e3e
1ffe
0fee
03ce
0000
0000
0000
0000
0000
0000
ENDCHAR
STARTCHAR SMALL LETTER y WITH ACUTE ACCENT
ENCODING 253
SWIDTH 667 0
DWIDTH 16 0
BBX 16 32 0 -3
BITMAP
0000
0000
0000
0000
0000
0040
00e0
01f0
03c0
0300
0000
0000
380e
380e
380e
380e
380e
380e
380e
380e
380e
3c1e
1e3e
1ffe
0fee
03ce
000e
000e
001c
0ffc
0ff8
07e0
ENDCHAR
STARTCHAR SMALL ICELANDIC LETTER THORN
ENCODING 254
SWIDTH 667 0
DWIDTH 16 0
BBX 16 32 0 -3
BITMAP
0000
0000
0000
0000
0000
0000
0000
0000
0000
3800
3800
3800
3800
3800
39f0
3ffc
3ffc
3e1e
380e
380e
380e
380e
3e1e
3ffc
3ffc
39f0
3800
3800
3800
3800
3800
3800
ENDCHAR
STARTCHAR SMALL LETTER y WITH DIAERESIS
ENCODING 255
SWIDTH 667 0
DWIDTH 16 0
BBX 16 32 0 -3
BITMAP
0000
0000
0000
0000
0000
0000
0c18
1e3c
1e3c
0c18
0000
0000
380e
380e
380e
380e
380e
380e
380e
380e
380e
3c1e
1e3e
1ffe
0fee
03ce
000e
000e
001c
0ffc
0ff8
07e0
ENDCHAR
ENDFONT
